<svg width="160" height="63" viewBox="0 0 160 63" fill="none" xmlns="http://www.w3.org/2000/svg">
<path d="M59.1722 35.9558C59.7283 35.9558 60.2128 36.1538 60.6256 36.5498C61.03 36.9627 61.2322 37.4556 61.2322 38.0285V60.5625C61.2322 61.1438 61.03 61.6283 60.6256 62.0159C60.2128 62.4287 59.7283 62.6351 59.1722 62.6351H59.1217C58.5572 62.6351 58.0727 62.4287 57.6683 62.0159C57.2554 61.6283 57.049 61.1438 57.049 60.5625V38.0285C57.049 37.4556 57.2554 36.9627 57.6683 36.5498C58.0727 36.1538 58.5572 35.9558 59.1217 35.9558H59.1722Z" fill="#00C0F3"/>
<path d="M5.96525 47.1407C5.46814 47.1407 5.05108 47.3134 4.71406 47.6589C4.36861 48.0127 4.19589 48.434 4.19589 48.9227C4.19589 49.6052 4.52449 50.1149 5.18167 50.4519C5.40916 50.5783 6.36125 50.8648 8.03792 51.3113C9.39442 51.6989 10.4013 52.2044 11.0584 52.8279C12.0021 53.7294 12.4739 55.0101 12.4739 56.67C12.4739 58.3129 11.8968 59.72 10.7425 60.8911C9.56292 62.0538 8.15587 62.6352 6.52132 62.6352H2.06003C1.50395 62.6352 1.01948 62.4288 0.606634 62.0159C0.20221 61.6283 0 61.1439 0 60.5625V60.5372C0 59.9643 0.20221 59.4714 0.606634 59.0586C1.01948 58.6542 1.50395 58.4519 2.06003 58.4519H6.68562C7.19115 58.4519 7.61242 58.2792 7.94944 57.9338C8.29489 57.5968 8.46761 57.1755 8.46761 56.67C8.46761 56.0465 8.14323 55.5746 7.49447 55.2545C7.32596 55.1786 6.36967 54.8964 4.62559 54.4077C3.26909 54.0032 2.26224 53.4767 1.60506 52.8279C0.652977 51.9095 0.176931 50.6078 0.176931 48.9227C0.176931 47.2797 0.758295 45.8769 1.92101 44.7142C3.09216 43.543 4.49921 42.9575 6.14218 42.9575H9.28909C9.8536 42.9575 10.3423 43.1639 10.7551 43.5767C11.168 43.9812 11.3744 44.4699 11.3744 45.0428V45.0807C11.3744 45.662 11.168 46.1465 10.7551 46.5341C10.3423 46.9385 9.8536 47.1407 9.28909 47.1407H5.96525ZM17.9463 42.9575C18.5276 42.9575 19.0121 43.1639 19.3997 43.5767C19.8125 43.9812 20.019 44.4699 20.019 45.0428V60.5625C20.019 61.1439 19.8125 61.6283 19.3997 62.0159C19.0121 62.4288 18.5276 62.6352 17.9463 62.6352H17.921C17.3481 62.6352 16.8552 62.4288 16.4423 62.0159C16.0379 61.6283 15.8357 61.1439 15.8357 60.5625V45.0428C15.8357 44.4699 16.0379 43.9812 16.4423 43.5767C16.8552 43.1639 17.3481 42.9575 17.921 42.9575H17.9463ZM17.921 40.7331C17.2638 40.7416 16.6993 40.5099 16.2275 40.038C15.7641 39.5746 15.5324 39.0101 15.5324 38.3445C15.5324 37.6958 15.7641 37.1397 16.2275 36.6763C16.6993 36.2044 17.2638 35.9685 17.921 35.9685C18.5698 35.9685 19.1301 36.2044 19.6019 36.6763C20.0737 37.1312 20.3096 37.6873 20.3096 38.3445C20.3096 39.0186 20.0737 39.5831 19.6019 40.038C19.1301 40.5099 18.5698 40.7416 17.921 40.7331ZM28.2591 60.5625C28.2591 61.1439 28.0527 61.6283 27.6398 62.0159C27.2354 62.4288 26.7509 62.6352 26.1864 62.6352H26.1359C25.5798 62.6352 25.0953 62.4288 24.6825 62.0159C24.278 61.6283 24.0758 61.1439 24.0758 60.5625V51.1723C24.0758 48.9227 24.8762 46.989 26.4771 45.3713C28.0864 43.7621 30.0242 42.9575 32.2907 42.9575C34.9953 42.9575 37.0384 43.859 38.4202 45.6621C39.7851 43.859 41.8241 42.9575 44.5371 42.9575C46.8036 42.9575 48.7372 43.7621 50.3381 45.3713C51.9473 46.989 52.752 48.9227 52.752 51.1723V60.5625C52.752 61.1354 52.5498 61.6199 52.1453 62.0159C51.7409 62.4288 51.2522 62.6352 50.6793 62.6352H50.6414C50.0685 62.6352 49.5882 62.4288 49.2006 62.0159C48.7878 61.6283 48.5814 61.1439 48.5814 60.5625V51.1723C48.5814 50.0602 48.1896 49.1081 47.406 48.3161C46.6224 47.5325 45.6661 47.1407 44.5371 47.1407C43.4165 47.1407 42.4645 47.5325 41.6809 48.3161C40.8973 49.1081 40.5055 50.0602 40.5055 51.1723V60.5625C40.5055 61.1439 40.2991 61.6283 39.8863 62.0159C39.4987 62.4288 39.0142 62.6352 38.4329 62.6352H38.4076C37.8346 62.6352 37.3418 62.4288 36.9289 62.0159C36.5245 61.6283 36.3223 61.1439 36.3223 60.5625V51.1723C36.3223 50.0602 35.9263 49.1081 35.1343 48.3161C34.3507 47.5325 33.4028 47.1407 32.2907 47.1407C31.1701 47.1407 30.218 47.5325 29.4344 48.3161C28.6509 49.1081 28.2591 50.0602 28.2591 51.1723V60.5625ZM68.0442 40.7331C67.387 40.7331 66.8225 40.5014 66.3507 40.038C65.8873 39.5662 65.6556 39.0017 65.6556 38.3445C65.6556 37.6958 65.8873 37.1397 66.3507 36.6763C66.8225 36.2044 67.387 35.9685 68.0442 35.9685C68.693 35.9685 69.2533 36.2044 69.7251 36.6763C70.1969 37.1312 70.4329 37.6873 70.4329 38.3445C70.4329 39.0186 70.1969 39.5831 69.7251 40.038C69.2533 40.5014 68.693 40.7331 68.0442 40.7331ZM109.017 40.7331C108.36 40.7331 107.796 40.5014 107.324 40.038C106.86 39.5662 106.629 39.0017 106.629 38.3445C106.629 37.6958 106.86 37.1397 107.324 36.6763C107.796 36.2044 108.36 35.9685 109.017 35.9685C109.666 35.9685 110.226 36.2044 110.698 36.6763C111.17 37.1312 111.406 37.6873 111.406 38.3445C111.406 39.0186 111.17 39.5831 110.698 40.038C110.226 40.5014 109.666 40.7331 109.017 40.7331Z" fill="#404041"/>
<path fill-rule="evenodd" clip-rule="evenodd" d="M146.806 39.6967C146.275 39.6967 145.782 39.4566 145.466 39.0269L141.371 33.6809C141.321 33.6051 140.904 33.0996 140.044 33.0364C139.058 33.0617 125.321 33.049 124.916 33.049H122.882C121.062 33.049 119.596 31.5829 119.596 29.763V10.6414C119.596 8.82151 121.062 7.35547 122.882 7.35547H125.081C125.965 7.35547 126.686 6.63507 126.686 5.75039V3.28594C126.686 1.46603 128.152 0 129.972 0H156.714C158.534 0 160 1.46603 160 3.28594V29.763C160 31.5829 158.534 33.049 156.714 33.049H153.188C152.67 33.049 152.177 33.3018 151.886 33.7315L148.183 38.9764C147.867 39.4187 147.374 39.6841 146.831 39.6967C146.823 39.6967 146.814 39.6967 146.806 39.6967ZM124.562 29.6746H140.929C141.953 29.6746 142.926 30.1548 143.545 30.9637L145.428 33.4281C146.085 34.2875 147.374 34.2623 148.006 33.3776L149.624 31.0775C150.243 30.1928 151.242 29.6746 152.316 29.6746H155.033C155.918 29.6746 156.626 28.9668 156.626 28.0822V4.96686C156.626 4.08219 155.918 3.36178 155.033 3.36178H131.652C130.768 3.36178 130.06 4.08219 130.06 4.96686V5.75039C130.06 6.63507 130.768 7.35547 131.652 7.35547H149.46C151.267 7.35547 152.746 8.82151 152.746 10.6414V22.5592C152.746 24.3791 151.267 25.8452 149.46 25.8452H129.972C128.152 25.8452 126.686 24.3791 126.686 22.5592V12.3349C126.686 11.4502 125.965 10.7299 125.081 10.7299H124.562C123.678 10.7299 122.97 11.4502 122.97 12.3349V28.0822C122.97 28.9668 123.678 29.6746 124.562 29.6746ZM131.652 22.4708H147.766C148.651 22.4708 149.371 21.7631 149.371 20.8784V12.3349C149.371 11.4502 148.651 10.7299 147.766 10.7299H131.652C130.768 10.7299 130.06 11.4502 130.06 12.3349V20.8784C130.06 21.7631 130.768 22.4708 131.652 22.4708ZM68.0822 42.9574C68.6635 42.9574 69.148 43.1638 69.5355 43.5767C69.9484 43.9811 70.1548 44.4698 70.1548 45.0427V60.5624C70.1548 61.1438 69.9484 61.6282 69.5355 62.0158C69.148 62.4287 68.6635 62.6351 68.0822 62.6351H68.0442C67.4797 62.6351 66.991 62.4287 66.5782 62.0158C66.1738 61.6282 65.9716 61.1438 65.9716 60.5624V45.0427C65.9716 44.4698 66.1738 43.9811 66.5782 43.5767C66.991 43.1638 67.4797 42.9574 68.0442 42.9574H68.0822ZM78.4076 60.5624C78.4076 61.1438 78.2012 61.6282 77.7883 62.0158C77.3755 62.4287 76.891 62.6351 76.3349 62.6351H76.2844C75.7283 62.6351 75.2438 62.4287 74.831 62.0158C74.4265 61.6282 74.2201 61.1438 74.2117 60.5624V51.1722C74.2117 48.9226 75.0163 46.9889 76.6256 45.3712C78.2349 43.762 80.1727 42.9574 82.4392 42.9574C85.1438 42.9574 87.1869 43.8589 88.5687 45.662C89.9336 43.8589 91.9684 42.9574 94.673 42.9574C96.9394 42.9574 98.8773 43.762 100.487 45.3712C102.087 46.9889 102.888 48.9226 102.888 51.1722V60.5624C102.888 61.1354 102.69 61.6198 102.294 62.0158C101.881 62.4287 101.392 62.6351 100.828 62.6351H100.79C100.209 62.6351 99.7241 62.4287 99.3365 62.0158C98.9321 61.6282 98.7299 61.1438 98.7299 60.5624V51.1722C98.7299 50.0601 98.3339 49.108 97.5419 48.316C96.7583 47.5324 95.802 47.1406 94.673 47.1406C93.5608 47.1406 92.613 47.5324 91.8294 48.316C91.0458 49.108 90.654 50.0601 90.654 51.1722V60.5624C90.6456 61.1438 90.4392 61.6282 90.0348 62.0158C89.6472 62.4287 89.1627 62.6351 88.5814 62.6351H88.5434C87.9789 62.6351 87.4903 62.4287 87.0774 62.0158C86.6646 61.6282 86.4581 61.1438 86.4581 60.5624V51.1722C86.4581 50.0601 86.0664 49.108 85.2828 48.316C84.4992 47.5324 83.5513 47.1406 82.4392 47.1406C81.3186 47.1406 80.3665 47.5324 79.5829 48.316C78.7994 49.108 78.4076 50.0601 78.4076 51.1722V60.5624ZM109.055 42.9574C109.637 42.9574 110.121 43.1638 110.509 43.5767C110.922 43.9811 111.128 44.4698 111.128 45.0427V60.5624C111.128 61.1438 110.922 61.6282 110.509 62.0158C110.121 62.4287 109.637 62.6351 109.055 62.6351H109.03C108.457 62.6351 107.964 62.4287 107.551 62.0158C107.147 61.6282 106.945 61.1438 106.945 60.5624V45.0427C106.945 44.4698 107.147 43.9811 107.551 43.5767C107.964 43.1638 108.457 42.9574 109.03 42.9574H109.055ZM117.295 35.9558C117.86 35.9558 118.344 36.1538 118.749 36.5498C119.162 36.9626 119.368 37.4513 119.368 38.0158V42.9574H121.921C122.486 42.9574 122.97 43.1638 123.374 43.5767C123.787 43.9811 123.994 44.4698 123.994 45.0427V45.0679C123.994 45.6493 123.787 46.1338 123.374 46.5213C122.97 46.9342 122.486 47.1406 121.921 47.1406H119.368V57.2638C119.368 57.6009 119.482 57.8831 119.709 58.1106C119.937 58.3381 120.219 58.4518 120.556 58.4518H121.921C122.486 58.4518 122.97 58.6541 123.374 59.0585C123.787 59.4713 123.994 59.96 123.994 60.5245V60.5624C123.994 61.1438 123.787 61.6282 123.374 62.0158C122.97 62.4287 122.486 62.6351 121.921 62.6351H120.556C119.082 62.6351 117.814 62.1085 116.752 61.0553C115.707 60.0021 115.185 58.7383 115.185 57.2638V38.0158C115.185 37.4513 115.387 36.9626 115.791 36.5498C116.204 36.1538 116.689 35.9558 117.245 35.9558H117.295Z" fill="#00C0F3"/>
<path fill-rule="evenodd" clip-rule="evenodd" d="M144.645 48.695C144.779 48.9815 144.847 49.2722 144.847 49.567C144.847 49.8114 144.805 50.0515 144.72 50.2874C144.527 50.8183 144.16 51.2058 143.621 51.4501C142.028 52.1663 139.935 53.1099 137.34 54.2811C134.113 55.7387 132.221 56.5981 131.665 56.8593C132.533 57.9546 133.881 58.5023 135.709 58.5023C136.931 58.5023 138.039 58.1442 139.033 57.428C140.002 56.7203 140.676 55.8103 141.055 54.6982C141.392 53.763 142.054 53.2953 143.039 53.2953C143.747 53.2953 144.312 53.5902 144.733 54.18C144.994 54.5423 145.125 54.9257 145.125 55.3301C145.125 55.566 145.078 55.8103 144.986 56.0631C144.32 58.0094 143.145 59.5808 141.46 60.7772C139.749 62.0157 137.833 62.635 135.709 62.635C133.005 62.635 130.688 61.6745 128.758 59.7535C126.837 57.824 125.877 55.507 125.877 52.8024C125.877 50.0894 126.837 47.7724 128.758 45.8514C130.688 43.922 133.005 42.9573 135.709 42.9573C137.672 42.9573 139.463 43.4923 141.081 44.5623C142.681 45.6155 143.869 46.9931 144.645 48.695ZM135.709 47.1784C134.142 47.1784 132.807 47.7303 131.703 48.8341C130.608 49.9378 130.06 51.2774 130.06 52.853V52.9667L139.615 48.6824C138.772 47.6797 137.47 47.1784 135.709 47.1784ZM153.491 47.1405C152.994 47.1405 152.573 47.3132 152.227 47.6587C151.89 48.0125 151.722 48.4338 151.722 48.9225C151.722 49.6049 152.051 50.1147 152.708 50.4517C152.935 50.5781 153.887 50.8645 155.564 51.3111C156.92 51.6987 157.927 52.2042 158.585 52.8277C159.528 53.7292 160 55.0099 160 56.6698C160 58.3127 159.419 59.7198 158.256 60.8909C157.085 62.0536 155.678 62.635 154.035 62.635H149.586C149.03 62.635 148.546 62.4286 148.133 62.0157C147.72 61.6281 147.513 61.1437 147.513 60.5623V60.537C147.513 59.9641 147.72 59.4712 148.133 59.0584C148.546 58.6539 149.03 58.4517 149.586 58.4517H154.212C154.709 58.4517 155.13 58.279 155.475 57.9336C155.821 57.5966 155.994 57.1753 155.994 56.6698C155.994 56.0463 155.669 55.5744 155.021 55.2542C154.844 55.1784 153.883 54.8961 152.139 54.4075C150.791 54.003 149.784 53.4764 149.118 52.8277C148.175 51.9093 147.703 50.6076 147.703 48.9225C147.703 47.2795 148.284 45.8767 149.447 44.714C150.618 43.5428 152.025 42.9573 153.668 42.9573H156.803C157.375 42.9573 157.868 43.1637 158.281 43.5765C158.686 43.981 158.888 44.4697 158.888 45.0426V45.0805C158.888 45.6618 158.686 46.1463 158.281 46.5339C157.868 46.9383 157.375 47.1405 156.803 47.1405H153.491Z" fill="#00C0F3"/>
</svg>
